<mxfile host="app.diagrams.net" modified="2023-11-14T09:51:26.061Z" agent="Mozilla/5.0 (Windows NT 10.0; Win64; x64) AppleWebKit/537.36 (KHTML, like Gecko) Chrome/119.0.0.0 Safari/537.36" etag="RVtL88fYFeon4IrMt2ke" version="22.1.0" type="device">
  <diagram name="Página-1" id="8I1aEuL2E8TXxomT4Hc3">
    <mxGraphModel dx="1674" dy="782" grid="1" gridSize="10" guides="1" tooltips="1" connect="1" arrows="1" fold="1" page="1" pageScale="1" pageWidth="827" pageHeight="1169" math="0" shadow="0">
      <root>
        <mxCell id="0" />
        <mxCell id="1" parent="0" />
        <mxCell id="mSnXC_oE3pGESPH586B_-40" style="edgeStyle=orthogonalEdgeStyle;rounded=0;orthogonalLoop=1;jettySize=auto;html=1;exitX=0;exitY=1;exitDx=0;exitDy=0;entryX=0;entryY=0.5;entryDx=0;entryDy=0;" parent="1" source="mSnXC_oE3pGESPH586B_-2" target="mSnXC_oE3pGESPH586B_-39" edge="1">
          <mxGeometry relative="1" as="geometry" />
        </mxCell>
        <mxCell id="mSnXC_oE3pGESPH586B_-2" value="Empleado" style="whiteSpace=wrap;html=1;align=center;" parent="1" vertex="1">
          <mxGeometry x="220" y="400" width="100" height="40" as="geometry" />
        </mxCell>
        <mxCell id="mSnXC_oE3pGESPH586B_-11" style="edgeStyle=orthogonalEdgeStyle;rounded=0;orthogonalLoop=1;jettySize=auto;html=1;entryX=0;entryY=0.5;entryDx=0;entryDy=0;" parent="1" source="mSnXC_oE3pGESPH586B_-3" target="mSnXC_oE3pGESPH586B_-2" edge="1">
          <mxGeometry relative="1" as="geometry" />
        </mxCell>
        <mxCell id="mSnXC_oE3pGESPH586B_-3" value="Salario" style="ellipse;whiteSpace=wrap;html=1;align=center;" parent="1" vertex="1">
          <mxGeometry x="60" y="400" width="100" height="40" as="geometry" />
        </mxCell>
        <mxCell id="mSnXC_oE3pGESPH586B_-13" style="edgeStyle=orthogonalEdgeStyle;rounded=0;orthogonalLoop=1;jettySize=auto;html=1;entryX=0;entryY=0.5;entryDx=0;entryDy=0;" parent="1" target="mSnXC_oE3pGESPH586B_-2" edge="1">
          <mxGeometry relative="1" as="geometry">
            <mxPoint x="160" y="320" as="sourcePoint" />
          </mxGeometry>
        </mxCell>
        <mxCell id="mSnXC_oE3pGESPH586B_-10" style="edgeStyle=orthogonalEdgeStyle;rounded=0;orthogonalLoop=1;jettySize=auto;html=1;entryX=0;entryY=0.5;entryDx=0;entryDy=0;" parent="1" source="mSnXC_oE3pGESPH586B_-6" target="mSnXC_oE3pGESPH586B_-2" edge="1">
          <mxGeometry relative="1" as="geometry" />
        </mxCell>
        <mxCell id="mSnXC_oE3pGESPH586B_-6" value="Nombre" style="ellipse;whiteSpace=wrap;html=1;align=center;" parent="1" vertex="1">
          <mxGeometry x="60" y="520" width="100" height="40" as="geometry" />
        </mxCell>
        <mxCell id="mSnXC_oE3pGESPH586B_-19" value="Poliza" style="whiteSpace=wrap;html=1;align=center;" parent="1" vertex="1">
          <mxGeometry x="530" y="270" width="100" height="40" as="geometry" />
        </mxCell>
        <mxCell id="mSnXC_oE3pGESPH586B_-25" style="edgeStyle=orthogonalEdgeStyle;rounded=0;orthogonalLoop=1;jettySize=auto;html=1;entryX=1;entryY=0.5;entryDx=0;entryDy=0;" parent="1" target="mSnXC_oE3pGESPH586B_-19" edge="1">
          <mxGeometry relative="1" as="geometry">
            <mxPoint x="690" y="190" as="sourcePoint" />
          </mxGeometry>
        </mxCell>
        <mxCell id="mSnXC_oE3pGESPH586B_-24" style="edgeStyle=orthogonalEdgeStyle;rounded=0;orthogonalLoop=1;jettySize=auto;html=1;entryX=1;entryY=0.5;entryDx=0;entryDy=0;" parent="1" source="mSnXC_oE3pGESPH586B_-21" target="mSnXC_oE3pGESPH586B_-19" edge="1">
          <mxGeometry relative="1" as="geometry" />
        </mxCell>
        <mxCell id="mSnXC_oE3pGESPH586B_-21" value="Descripción" style="ellipse;whiteSpace=wrap;html=1;align=center;" parent="1" vertex="1">
          <mxGeometry x="690" y="270" width="100" height="40" as="geometry" />
        </mxCell>
        <mxCell id="mSnXC_oE3pGESPH586B_-26" style="edgeStyle=orthogonalEdgeStyle;rounded=0;orthogonalLoop=1;jettySize=auto;html=1;entryX=1;entryY=0.5;entryDx=0;entryDy=0;" parent="1" source="mSnXC_oE3pGESPH586B_-22" target="mSnXC_oE3pGESPH586B_-19" edge="1">
          <mxGeometry relative="1" as="geometry" />
        </mxCell>
        <mxCell id="mSnXC_oE3pGESPH586B_-22" value="Cantidad" style="ellipse;whiteSpace=wrap;html=1;align=center;" parent="1" vertex="1">
          <mxGeometry x="690" y="390" width="100" height="40" as="geometry" />
        </mxCell>
        <mxCell id="mSnXC_oE3pGESPH586B_-27" value="Beneficiario" style="whiteSpace=wrap;html=1;align=center;" parent="1" vertex="1">
          <mxGeometry x="466.25" y="520" width="100" height="40" as="geometry" />
        </mxCell>
        <mxCell id="mSnXC_oE3pGESPH586B_-31" style="edgeStyle=orthogonalEdgeStyle;rounded=0;orthogonalLoop=1;jettySize=auto;html=1;" parent="1" source="mSnXC_oE3pGESPH586B_-28" target="mSnXC_oE3pGESPH586B_-27" edge="1">
          <mxGeometry relative="1" as="geometry" />
        </mxCell>
        <mxCell id="mSnXC_oE3pGESPH586B_-28" value="Dirección" style="ellipse;whiteSpace=wrap;html=1;align=center;" parent="1" vertex="1">
          <mxGeometry x="556.25" y="640" width="100" height="40" as="geometry" />
        </mxCell>
        <mxCell id="mSnXC_oE3pGESPH586B_-38" style="edgeStyle=orthogonalEdgeStyle;rounded=0;orthogonalLoop=1;jettySize=auto;html=1;entryX=0;entryY=0.5;entryDx=0;entryDy=0;" parent="1" source="mSnXC_oE3pGESPH586B_-32" target="mSnXC_oE3pGESPH586B_-19" edge="1">
          <mxGeometry relative="1" as="geometry" />
        </mxCell>
        <mxCell id="mSnXC_oE3pGESPH586B_-32" value="Venden" style="shape=rhombus;perimeter=rhombusPerimeter;whiteSpace=wrap;html=1;align=center;" parent="1" vertex="1">
          <mxGeometry x="380" y="260" width="120" height="60" as="geometry" />
        </mxCell>
        <mxCell id="mSnXC_oE3pGESPH586B_-36" style="edgeStyle=orthogonalEdgeStyle;rounded=0;orthogonalLoop=1;jettySize=auto;html=1;entryX=0.5;entryY=1;entryDx=0;entryDy=0;exitX=0.569;exitY=0.014;exitDx=0;exitDy=0;exitPerimeter=0;" parent="1" source="mSnXC_oE3pGESPH586B_-35" target="mSnXC_oE3pGESPH586B_-19" edge="1">
          <mxGeometry relative="1" as="geometry">
            <mxPoint x="545" y="390" as="sourcePoint" />
          </mxGeometry>
        </mxCell>
        <mxCell id="mSnXC_oE3pGESPH586B_-37" style="edgeStyle=orthogonalEdgeStyle;rounded=0;orthogonalLoop=1;jettySize=auto;html=1;entryX=0.5;entryY=0;entryDx=0;entryDy=0;" parent="1" source="mSnXC_oE3pGESPH586B_-35" target="mSnXC_oE3pGESPH586B_-27" edge="1">
          <mxGeometry relative="1" as="geometry" />
        </mxCell>
        <mxCell id="mSnXC_oE3pGESPH586B_-35" value="Compran" style="shape=rhombus;perimeter=rhombusPerimeter;whiteSpace=wrap;html=1;align=center;" parent="1" vertex="1">
          <mxGeometry x="470" y="390" width="130" height="70" as="geometry" />
        </mxCell>
        <mxCell id="mSnXC_oE3pGESPH586B_-43" style="edgeStyle=orthogonalEdgeStyle;rounded=0;orthogonalLoop=1;jettySize=auto;html=1;entryX=0.5;entryY=1;entryDx=0;entryDy=0;" parent="1" source="mSnXC_oE3pGESPH586B_-39" target="mSnXC_oE3pGESPH586B_-2" edge="1">
          <mxGeometry relative="1" as="geometry" />
        </mxCell>
        <mxCell id="mSnXC_oE3pGESPH586B_-39" value="es jefe" style="shape=rhombus;perimeter=rhombusPerimeter;whiteSpace=wrap;html=1;align=center;" parent="1" vertex="1">
          <mxGeometry x="240" y="470" width="70" height="30" as="geometry" />
        </mxCell>
        <mxCell id="mSnXC_oE3pGESPH586B_-44" value="ISA" style="strokeWidth=2;html=1;shape=mxgraph.flowchart.extract_or_measurement;whiteSpace=wrap;" parent="1" vertex="1">
          <mxGeometry x="239" y="330" width="62" height="30" as="geometry" />
        </mxCell>
        <mxCell id="mSnXC_oE3pGESPH586B_-45" style="edgeStyle=orthogonalEdgeStyle;rounded=0;orthogonalLoop=1;jettySize=auto;html=1;entryX=0.5;entryY=1;entryDx=0;entryDy=0;entryPerimeter=0;" parent="1" source="mSnXC_oE3pGESPH586B_-2" target="mSnXC_oE3pGESPH586B_-44" edge="1">
          <mxGeometry relative="1" as="geometry" />
        </mxCell>
        <mxCell id="mSnXC_oE3pGESPH586B_-49" style="edgeStyle=orthogonalEdgeStyle;rounded=0;orthogonalLoop=1;jettySize=auto;html=1;entryX=0.5;entryY=1;entryDx=0;entryDy=0;" parent="1" source="mSnXC_oE3pGESPH586B_-48" target="mSnXC_oE3pGESPH586B_-27" edge="1">
          <mxGeometry relative="1" as="geometry" />
        </mxCell>
        <mxCell id="mSnXC_oE3pGESPH586B_-48" value="Nombre" style="ellipse;whiteSpace=wrap;html=1;align=center;fontStyle=4;" parent="1" vertex="1">
          <mxGeometry x="380" y="640" width="100" height="40" as="geometry" />
        </mxCell>
        <mxCell id="mSnXC_oE3pGESPH586B_-50" value="NºPoliza" style="ellipse;whiteSpace=wrap;html=1;align=center;fontStyle=4;" parent="1" vertex="1">
          <mxGeometry x="690" y="170" width="100" height="40" as="geometry" />
        </mxCell>
        <mxCell id="mSnXC_oE3pGESPH586B_-52" value="NºEmpleado" style="ellipse;whiteSpace=wrap;html=1;align=center;fontStyle=4;" parent="1" vertex="1">
          <mxGeometry x="60" y="300" width="100" height="40" as="geometry" />
        </mxCell>
        <mxCell id="mSnXC_oE3pGESPH586B_-53" value="(1,n)" style="text;strokeColor=none;fillColor=none;spacingLeft=4;spacingRight=4;overflow=hidden;rotatable=0;points=[[0,0.5],[1,0.5]];portConstraint=eastwest;fontSize=12;whiteSpace=wrap;html=1;" parent="1" vertex="1">
          <mxGeometry x="220" y="440" width="40" height="30" as="geometry" />
        </mxCell>
        <mxCell id="mSnXC_oE3pGESPH586B_-54" value="(1,n)" style="text;strokeColor=none;fillColor=none;spacingLeft=4;spacingRight=4;overflow=hidden;rotatable=0;points=[[0,0.5],[1,0.5]];portConstraint=eastwest;fontSize=12;whiteSpace=wrap;html=1;" parent="1" vertex="1">
          <mxGeometry x="270" y="450" width="40" height="30" as="geometry" />
        </mxCell>
        <mxCell id="mSnXC_oE3pGESPH586B_-55" value="M:N" style="text;strokeColor=none;fillColor=none;spacingLeft=4;spacingRight=4;overflow=hidden;rotatable=0;points=[[0,0.5],[1,0.5]];portConstraint=eastwest;fontSize=12;whiteSpace=wrap;html=1;" parent="1" vertex="1">
          <mxGeometry x="255" y="500" width="40" height="30" as="geometry" />
        </mxCell>
        <mxCell id="mSnXC_oE3pGESPH586B_-58" style="edgeStyle=orthogonalEdgeStyle;rounded=0;orthogonalLoop=1;jettySize=auto;html=1;entryX=0;entryY=0.5;entryDx=0;entryDy=0;" parent="1" source="mSnXC_oE3pGESPH586B_-56" target="mSnXC_oE3pGESPH586B_-32" edge="1">
          <mxGeometry relative="1" as="geometry" />
        </mxCell>
        <mxCell id="mSnXC_oE3pGESPH586B_-56" value="Agente" style="whiteSpace=wrap;html=1;align=center;" parent="1" vertex="1">
          <mxGeometry x="220" y="270" width="100" height="40" as="geometry" />
        </mxCell>
        <mxCell id="mSnXC_oE3pGESPH586B_-57" style="edgeStyle=orthogonalEdgeStyle;rounded=0;orthogonalLoop=1;jettySize=auto;html=1;exitX=0.5;exitY=1;exitDx=0;exitDy=0;entryX=0.5;entryY=0;entryDx=0;entryDy=0;entryPerimeter=0;" parent="1" source="mSnXC_oE3pGESPH586B_-56" target="mSnXC_oE3pGESPH586B_-44" edge="1">
          <mxGeometry relative="1" as="geometry" />
        </mxCell>
        <mxCell id="mSnXC_oE3pGESPH586B_-59" value="(0,n)" style="text;strokeColor=none;fillColor=none;spacingLeft=4;spacingRight=4;overflow=hidden;rotatable=0;points=[[0,0.5],[1,0.5]];portConstraint=eastwest;fontSize=12;whiteSpace=wrap;html=1;" parent="1" vertex="1">
          <mxGeometry x="320" y="270" width="40" height="30" as="geometry" />
        </mxCell>
        <mxCell id="mSnXC_oE3pGESPH586B_-60" value="N:M" style="text;strokeColor=none;fillColor=none;spacingLeft=4;spacingRight=4;overflow=hidden;rotatable=0;points=[[0,0.5],[1,0.5]];portConstraint=eastwest;fontSize=12;whiteSpace=wrap;html=1;" parent="1" vertex="1">
          <mxGeometry x="426" y="230" width="40" height="30" as="geometry" />
        </mxCell>
        <mxCell id="mSnXC_oE3pGESPH586B_-61" value="(0,n)" style="text;strokeColor=none;fillColor=none;spacingLeft=4;spacingRight=4;overflow=hidden;rotatable=0;points=[[0,0.5],[1,0.5]];portConstraint=eastwest;fontSize=12;whiteSpace=wrap;html=1;" parent="1" vertex="1">
          <mxGeometry x="490" y="270" width="40" height="30" as="geometry" />
        </mxCell>
        <mxCell id="mSnXC_oE3pGESPH586B_-63" value="(1,n)" style="text;strokeColor=none;fillColor=none;spacingLeft=4;spacingRight=4;overflow=hidden;rotatable=0;points=[[0,0.5],[1,0.5]];portConstraint=eastwest;fontSize=12;whiteSpace=wrap;html=1;" parent="1" vertex="1">
          <mxGeometry x="550" y="320" width="40" height="30" as="geometry" />
        </mxCell>
        <mxCell id="mSnXC_oE3pGESPH586B_-64" value="1:N" style="text;strokeColor=none;fillColor=none;spacingLeft=4;spacingRight=4;overflow=hidden;rotatable=0;points=[[0,0.5],[1,0.5]];portConstraint=eastwest;fontSize=12;whiteSpace=wrap;html=1;" parent="1" vertex="1">
          <mxGeometry x="440" y="410" width="40" height="30" as="geometry" />
        </mxCell>
        <mxCell id="mSnXC_oE3pGESPH586B_-65" value="(1,1)" style="text;strokeColor=none;fillColor=none;spacingLeft=4;spacingRight=4;overflow=hidden;rotatable=0;points=[[0,0.5],[1,0.5]];portConstraint=eastwest;fontSize=12;whiteSpace=wrap;html=1;" parent="1" vertex="1">
          <mxGeometry x="480" y="480" width="40" height="30" as="geometry" />
        </mxCell>
        <mxCell id="v8vx41ayqe4JFKYr47lg-1" value="Empleados" style="shape=table;startSize=30;container=1;collapsible=1;childLayout=tableLayout;fixedRows=1;rowLines=0;fontStyle=1;align=center;resizeLast=1;html=1;" vertex="1" parent="1">
          <mxGeometry x="110" y="770" width="180" height="150" as="geometry" />
        </mxCell>
        <mxCell id="v8vx41ayqe4JFKYr47lg-2" value="" style="shape=tableRow;horizontal=0;startSize=0;swimlaneHead=0;swimlaneBody=0;fillColor=none;collapsible=0;dropTarget=0;points=[[0,0.5],[1,0.5]];portConstraint=eastwest;top=0;left=0;right=0;bottom=1;" vertex="1" parent="v8vx41ayqe4JFKYr47lg-1">
          <mxGeometry y="30" width="180" height="30" as="geometry" />
        </mxCell>
        <mxCell id="v8vx41ayqe4JFKYr47lg-3" value="PK" style="shape=partialRectangle;connectable=0;fillColor=none;top=0;left=0;bottom=0;right=0;fontStyle=1;overflow=hidden;whiteSpace=wrap;html=1;" vertex="1" parent="v8vx41ayqe4JFKYr47lg-2">
          <mxGeometry width="30" height="30" as="geometry">
            <mxRectangle width="30" height="30" as="alternateBounds" />
          </mxGeometry>
        </mxCell>
        <mxCell id="v8vx41ayqe4JFKYr47lg-4" value="NºEmpleado" style="shape=partialRectangle;connectable=0;fillColor=none;top=0;left=0;bottom=0;right=0;align=left;spacingLeft=6;fontStyle=5;overflow=hidden;whiteSpace=wrap;html=1;" vertex="1" parent="v8vx41ayqe4JFKYr47lg-2">
          <mxGeometry x="30" width="150" height="30" as="geometry">
            <mxRectangle width="150" height="30" as="alternateBounds" />
          </mxGeometry>
        </mxCell>
        <mxCell id="v8vx41ayqe4JFKYr47lg-5" value="" style="shape=tableRow;horizontal=0;startSize=0;swimlaneHead=0;swimlaneBody=0;fillColor=none;collapsible=0;dropTarget=0;points=[[0,0.5],[1,0.5]];portConstraint=eastwest;top=0;left=0;right=0;bottom=0;" vertex="1" parent="v8vx41ayqe4JFKYr47lg-1">
          <mxGeometry y="60" width="180" height="30" as="geometry" />
        </mxCell>
        <mxCell id="v8vx41ayqe4JFKYr47lg-6" value="" style="shape=partialRectangle;connectable=0;fillColor=none;top=0;left=0;bottom=0;right=0;editable=1;overflow=hidden;whiteSpace=wrap;html=1;" vertex="1" parent="v8vx41ayqe4JFKYr47lg-5">
          <mxGeometry width="30" height="30" as="geometry">
            <mxRectangle width="30" height="30" as="alternateBounds" />
          </mxGeometry>
        </mxCell>
        <mxCell id="v8vx41ayqe4JFKYr47lg-7" value="Salario" style="shape=partialRectangle;connectable=0;fillColor=none;top=0;left=0;bottom=0;right=0;align=left;spacingLeft=6;overflow=hidden;whiteSpace=wrap;html=1;" vertex="1" parent="v8vx41ayqe4JFKYr47lg-5">
          <mxGeometry x="30" width="150" height="30" as="geometry">
            <mxRectangle width="150" height="30" as="alternateBounds" />
          </mxGeometry>
        </mxCell>
        <mxCell id="v8vx41ayqe4JFKYr47lg-8" value="" style="shape=tableRow;horizontal=0;startSize=0;swimlaneHead=0;swimlaneBody=0;fillColor=none;collapsible=0;dropTarget=0;points=[[0,0.5],[1,0.5]];portConstraint=eastwest;top=0;left=0;right=0;bottom=0;" vertex="1" parent="v8vx41ayqe4JFKYr47lg-1">
          <mxGeometry y="90" width="180" height="30" as="geometry" />
        </mxCell>
        <mxCell id="v8vx41ayqe4JFKYr47lg-9" value="" style="shape=partialRectangle;connectable=0;fillColor=none;top=0;left=0;bottom=0;right=0;editable=1;overflow=hidden;whiteSpace=wrap;html=1;" vertex="1" parent="v8vx41ayqe4JFKYr47lg-8">
          <mxGeometry width="30" height="30" as="geometry">
            <mxRectangle width="30" height="30" as="alternateBounds" />
          </mxGeometry>
        </mxCell>
        <mxCell id="v8vx41ayqe4JFKYr47lg-10" value="Nombre" style="shape=partialRectangle;connectable=0;fillColor=none;top=0;left=0;bottom=0;right=0;align=left;spacingLeft=6;overflow=hidden;whiteSpace=wrap;html=1;" vertex="1" parent="v8vx41ayqe4JFKYr47lg-8">
          <mxGeometry x="30" width="150" height="30" as="geometry">
            <mxRectangle width="150" height="30" as="alternateBounds" />
          </mxGeometry>
        </mxCell>
        <mxCell id="v8vx41ayqe4JFKYr47lg-127" value="" style="shape=tableRow;horizontal=0;startSize=0;swimlaneHead=0;swimlaneBody=0;fillColor=none;collapsible=0;dropTarget=0;points=[[0,0.5],[1,0.5]];portConstraint=eastwest;top=0;left=0;right=0;bottom=1;" vertex="1" parent="v8vx41ayqe4JFKYr47lg-1">
          <mxGeometry y="120" width="180" height="30" as="geometry" />
        </mxCell>
        <mxCell id="v8vx41ayqe4JFKYr47lg-128" value="PK" style="shape=partialRectangle;connectable=0;fillColor=none;top=0;left=0;bottom=0;right=0;fontStyle=1;overflow=hidden;whiteSpace=wrap;html=1;" vertex="1" parent="v8vx41ayqe4JFKYr47lg-127">
          <mxGeometry width="30" height="30" as="geometry">
            <mxRectangle width="30" height="30" as="alternateBounds" />
          </mxGeometry>
        </mxCell>
        <mxCell id="v8vx41ayqe4JFKYr47lg-129" value="NºEmpleado.jefe" style="shape=partialRectangle;connectable=0;fillColor=none;top=0;left=0;bottom=0;right=0;align=left;spacingLeft=6;fontStyle=5;overflow=hidden;whiteSpace=wrap;html=1;" vertex="1" parent="v8vx41ayqe4JFKYr47lg-127">
          <mxGeometry x="30" width="150" height="30" as="geometry">
            <mxRectangle width="150" height="30" as="alternateBounds" />
          </mxGeometry>
        </mxCell>
        <mxCell id="v8vx41ayqe4JFKYr47lg-65" value="Polizas" style="shape=table;startSize=30;container=1;collapsible=1;childLayout=tableLayout;fixedRows=1;rowLines=0;fontStyle=1;align=center;resizeLast=1;html=1;" vertex="1" parent="1">
          <mxGeometry x="780" y="770" width="180" height="120" as="geometry" />
        </mxCell>
        <mxCell id="v8vx41ayqe4JFKYr47lg-66" value="" style="shape=tableRow;horizontal=0;startSize=0;swimlaneHead=0;swimlaneBody=0;fillColor=none;collapsible=0;dropTarget=0;points=[[0,0.5],[1,0.5]];portConstraint=eastwest;top=0;left=0;right=0;bottom=1;" vertex="1" parent="v8vx41ayqe4JFKYr47lg-65">
          <mxGeometry y="30" width="180" height="30" as="geometry" />
        </mxCell>
        <mxCell id="v8vx41ayqe4JFKYr47lg-67" value="PK" style="shape=partialRectangle;connectable=0;fillColor=none;top=0;left=0;bottom=0;right=0;fontStyle=1;overflow=hidden;whiteSpace=wrap;html=1;" vertex="1" parent="v8vx41ayqe4JFKYr47lg-66">
          <mxGeometry width="30" height="30" as="geometry">
            <mxRectangle width="30" height="30" as="alternateBounds" />
          </mxGeometry>
        </mxCell>
        <mxCell id="v8vx41ayqe4JFKYr47lg-68" value="NºPóliza" style="shape=partialRectangle;connectable=0;fillColor=none;top=0;left=0;bottom=0;right=0;align=left;spacingLeft=6;fontStyle=5;overflow=hidden;whiteSpace=wrap;html=1;" vertex="1" parent="v8vx41ayqe4JFKYr47lg-66">
          <mxGeometry x="30" width="150" height="30" as="geometry">
            <mxRectangle width="150" height="30" as="alternateBounds" />
          </mxGeometry>
        </mxCell>
        <mxCell id="v8vx41ayqe4JFKYr47lg-69" value="" style="shape=tableRow;horizontal=0;startSize=0;swimlaneHead=0;swimlaneBody=0;fillColor=none;collapsible=0;dropTarget=0;points=[[0,0.5],[1,0.5]];portConstraint=eastwest;top=0;left=0;right=0;bottom=0;" vertex="1" parent="v8vx41ayqe4JFKYr47lg-65">
          <mxGeometry y="60" width="180" height="30" as="geometry" />
        </mxCell>
        <mxCell id="v8vx41ayqe4JFKYr47lg-70" value="" style="shape=partialRectangle;connectable=0;fillColor=none;top=0;left=0;bottom=0;right=0;editable=1;overflow=hidden;whiteSpace=wrap;html=1;" vertex="1" parent="v8vx41ayqe4JFKYr47lg-69">
          <mxGeometry width="30" height="30" as="geometry">
            <mxRectangle width="30" height="30" as="alternateBounds" />
          </mxGeometry>
        </mxCell>
        <mxCell id="v8vx41ayqe4JFKYr47lg-71" value="Descripción" style="shape=partialRectangle;connectable=0;fillColor=none;top=0;left=0;bottom=0;right=0;align=left;spacingLeft=6;overflow=hidden;whiteSpace=wrap;html=1;" vertex="1" parent="v8vx41ayqe4JFKYr47lg-69">
          <mxGeometry x="30" width="150" height="30" as="geometry">
            <mxRectangle width="150" height="30" as="alternateBounds" />
          </mxGeometry>
        </mxCell>
        <mxCell id="v8vx41ayqe4JFKYr47lg-72" value="" style="shape=tableRow;horizontal=0;startSize=0;swimlaneHead=0;swimlaneBody=0;fillColor=none;collapsible=0;dropTarget=0;points=[[0,0.5],[1,0.5]];portConstraint=eastwest;top=0;left=0;right=0;bottom=0;" vertex="1" parent="v8vx41ayqe4JFKYr47lg-65">
          <mxGeometry y="90" width="180" height="30" as="geometry" />
        </mxCell>
        <mxCell id="v8vx41ayqe4JFKYr47lg-73" value="" style="shape=partialRectangle;connectable=0;fillColor=none;top=0;left=0;bottom=0;right=0;editable=1;overflow=hidden;whiteSpace=wrap;html=1;" vertex="1" parent="v8vx41ayqe4JFKYr47lg-72">
          <mxGeometry width="30" height="30" as="geometry">
            <mxRectangle width="30" height="30" as="alternateBounds" />
          </mxGeometry>
        </mxCell>
        <mxCell id="v8vx41ayqe4JFKYr47lg-74" value="Cantidad" style="shape=partialRectangle;connectable=0;fillColor=none;top=0;left=0;bottom=0;right=0;align=left;spacingLeft=6;overflow=hidden;whiteSpace=wrap;html=1;" vertex="1" parent="v8vx41ayqe4JFKYr47lg-72">
          <mxGeometry x="30" width="150" height="30" as="geometry">
            <mxRectangle width="150" height="30" as="alternateBounds" />
          </mxGeometry>
        </mxCell>
        <mxCell id="v8vx41ayqe4JFKYr47lg-75" value="Beneficiario" style="shape=table;startSize=30;container=1;collapsible=1;childLayout=tableLayout;fixedRows=1;rowLines=0;fontStyle=1;align=center;resizeLast=1;html=1;" vertex="1" parent="1">
          <mxGeometry x="750" y="1200" width="180" height="120" as="geometry" />
        </mxCell>
        <mxCell id="v8vx41ayqe4JFKYr47lg-76" value="" style="shape=tableRow;horizontal=0;startSize=0;swimlaneHead=0;swimlaneBody=0;fillColor=none;collapsible=0;dropTarget=0;points=[[0,0.5],[1,0.5]];portConstraint=eastwest;top=0;left=0;right=0;bottom=1;" vertex="1" parent="v8vx41ayqe4JFKYr47lg-75">
          <mxGeometry y="30" width="180" height="30" as="geometry" />
        </mxCell>
        <mxCell id="v8vx41ayqe4JFKYr47lg-77" value="PK" style="shape=partialRectangle;connectable=0;fillColor=none;top=0;left=0;bottom=0;right=0;fontStyle=1;overflow=hidden;whiteSpace=wrap;html=1;" vertex="1" parent="v8vx41ayqe4JFKYr47lg-76">
          <mxGeometry width="30" height="30" as="geometry">
            <mxRectangle width="30" height="30" as="alternateBounds" />
          </mxGeometry>
        </mxCell>
        <mxCell id="v8vx41ayqe4JFKYr47lg-78" value="DNI" style="shape=partialRectangle;connectable=0;fillColor=none;top=0;left=0;bottom=0;right=0;align=left;spacingLeft=6;fontStyle=5;overflow=hidden;whiteSpace=wrap;html=1;" vertex="1" parent="v8vx41ayqe4JFKYr47lg-76">
          <mxGeometry x="30" width="150" height="30" as="geometry">
            <mxRectangle width="150" height="30" as="alternateBounds" />
          </mxGeometry>
        </mxCell>
        <mxCell id="v8vx41ayqe4JFKYr47lg-79" value="" style="shape=tableRow;horizontal=0;startSize=0;swimlaneHead=0;swimlaneBody=0;fillColor=none;collapsible=0;dropTarget=0;points=[[0,0.5],[1,0.5]];portConstraint=eastwest;top=0;left=0;right=0;bottom=0;" vertex="1" parent="v8vx41ayqe4JFKYr47lg-75">
          <mxGeometry y="60" width="180" height="30" as="geometry" />
        </mxCell>
        <mxCell id="v8vx41ayqe4JFKYr47lg-80" value="" style="shape=partialRectangle;connectable=0;fillColor=none;top=0;left=0;bottom=0;right=0;editable=1;overflow=hidden;whiteSpace=wrap;html=1;" vertex="1" parent="v8vx41ayqe4JFKYr47lg-79">
          <mxGeometry width="30" height="30" as="geometry">
            <mxRectangle width="30" height="30" as="alternateBounds" />
          </mxGeometry>
        </mxCell>
        <mxCell id="v8vx41ayqe4JFKYr47lg-81" value="Nombre" style="shape=partialRectangle;connectable=0;fillColor=none;top=0;left=0;bottom=0;right=0;align=left;spacingLeft=6;overflow=hidden;whiteSpace=wrap;html=1;" vertex="1" parent="v8vx41ayqe4JFKYr47lg-79">
          <mxGeometry x="30" width="150" height="30" as="geometry">
            <mxRectangle width="150" height="30" as="alternateBounds" />
          </mxGeometry>
        </mxCell>
        <mxCell id="v8vx41ayqe4JFKYr47lg-82" value="" style="shape=tableRow;horizontal=0;startSize=0;swimlaneHead=0;swimlaneBody=0;fillColor=none;collapsible=0;dropTarget=0;points=[[0,0.5],[1,0.5]];portConstraint=eastwest;top=0;left=0;right=0;bottom=0;" vertex="1" parent="v8vx41ayqe4JFKYr47lg-75">
          <mxGeometry y="90" width="180" height="30" as="geometry" />
        </mxCell>
        <mxCell id="v8vx41ayqe4JFKYr47lg-83" value="" style="shape=partialRectangle;connectable=0;fillColor=none;top=0;left=0;bottom=0;right=0;editable=1;overflow=hidden;whiteSpace=wrap;html=1;" vertex="1" parent="v8vx41ayqe4JFKYr47lg-82">
          <mxGeometry width="30" height="30" as="geometry">
            <mxRectangle width="30" height="30" as="alternateBounds" />
          </mxGeometry>
        </mxCell>
        <mxCell id="v8vx41ayqe4JFKYr47lg-84" value="Dirección" style="shape=partialRectangle;connectable=0;fillColor=none;top=0;left=0;bottom=0;right=0;align=left;spacingLeft=6;overflow=hidden;whiteSpace=wrap;html=1;" vertex="1" parent="v8vx41ayqe4JFKYr47lg-82">
          <mxGeometry x="30" width="150" height="30" as="geometry">
            <mxRectangle width="150" height="30" as="alternateBounds" />
          </mxGeometry>
        </mxCell>
        <mxCell id="v8vx41ayqe4JFKYr47lg-85" value="Agente" style="shape=table;startSize=30;container=1;collapsible=1;childLayout=tableLayout;fixedRows=1;rowLines=0;fontStyle=1;align=center;resizeLast=1;html=1;" vertex="1" parent="1">
          <mxGeometry x="110" y="990" width="180" height="60" as="geometry" />
        </mxCell>
        <mxCell id="v8vx41ayqe4JFKYr47lg-86" value="" style="shape=tableRow;horizontal=0;startSize=0;swimlaneHead=0;swimlaneBody=0;fillColor=none;collapsible=0;dropTarget=0;points=[[0,0.5],[1,0.5]];portConstraint=eastwest;top=0;left=0;right=0;bottom=1;" vertex="1" parent="v8vx41ayqe4JFKYr47lg-85">
          <mxGeometry y="30" width="180" height="30" as="geometry" />
        </mxCell>
        <mxCell id="v8vx41ayqe4JFKYr47lg-87" value="PK, FK" style="shape=partialRectangle;connectable=0;fillColor=none;top=0;left=0;bottom=0;right=0;fontStyle=1;overflow=hidden;whiteSpace=wrap;html=1;" vertex="1" parent="v8vx41ayqe4JFKYr47lg-86">
          <mxGeometry width="30" height="30" as="geometry">
            <mxRectangle width="30" height="30" as="alternateBounds" />
          </mxGeometry>
        </mxCell>
        <mxCell id="v8vx41ayqe4JFKYr47lg-88" value="NºEmpleado" style="shape=partialRectangle;connectable=0;fillColor=none;top=0;left=0;bottom=0;right=0;align=left;spacingLeft=6;fontStyle=5;overflow=hidden;whiteSpace=wrap;html=1;" vertex="1" parent="v8vx41ayqe4JFKYr47lg-86">
          <mxGeometry x="30" width="150" height="30" as="geometry">
            <mxRectangle width="150" height="30" as="alternateBounds" />
          </mxGeometry>
        </mxCell>
        <mxCell id="v8vx41ayqe4JFKYr47lg-95" value="Vende" style="shape=table;startSize=30;container=1;collapsible=1;childLayout=tableLayout;fixedRows=1;rowLines=0;fontStyle=1;align=center;resizeLast=1;html=1;" vertex="1" parent="1">
          <mxGeometry x="466" y="770" width="180" height="90" as="geometry" />
        </mxCell>
        <mxCell id="v8vx41ayqe4JFKYr47lg-96" value="" style="shape=tableRow;horizontal=0;startSize=0;swimlaneHead=0;swimlaneBody=0;fillColor=none;collapsible=0;dropTarget=0;points=[[0,0.5],[1,0.5]];portConstraint=eastwest;top=0;left=0;right=0;bottom=1;" vertex="1" parent="v8vx41ayqe4JFKYr47lg-95">
          <mxGeometry y="30" width="180" height="30" as="geometry" />
        </mxCell>
        <mxCell id="v8vx41ayqe4JFKYr47lg-97" value="PK, FK" style="shape=partialRectangle;connectable=0;fillColor=none;top=0;left=0;bottom=0;right=0;fontStyle=1;overflow=hidden;whiteSpace=wrap;html=1;" vertex="1" parent="v8vx41ayqe4JFKYr47lg-96">
          <mxGeometry width="54" height="30" as="geometry">
            <mxRectangle width="54" height="30" as="alternateBounds" />
          </mxGeometry>
        </mxCell>
        <mxCell id="v8vx41ayqe4JFKYr47lg-98" value="NºEmpleado" style="shape=partialRectangle;connectable=0;fillColor=none;top=0;left=0;bottom=0;right=0;align=left;spacingLeft=6;fontStyle=5;overflow=hidden;whiteSpace=wrap;html=1;" vertex="1" parent="v8vx41ayqe4JFKYr47lg-96">
          <mxGeometry x="54" width="126" height="30" as="geometry">
            <mxRectangle width="126" height="30" as="alternateBounds" />
          </mxGeometry>
        </mxCell>
        <mxCell id="v8vx41ayqe4JFKYr47lg-121" value="" style="shape=tableRow;horizontal=0;startSize=0;swimlaneHead=0;swimlaneBody=0;fillColor=none;collapsible=0;dropTarget=0;points=[[0,0.5],[1,0.5]];portConstraint=eastwest;top=0;left=0;right=0;bottom=1;" vertex="1" parent="v8vx41ayqe4JFKYr47lg-95">
          <mxGeometry y="60" width="180" height="30" as="geometry" />
        </mxCell>
        <mxCell id="v8vx41ayqe4JFKYr47lg-122" value="PK, FK" style="shape=partialRectangle;connectable=0;fillColor=none;top=0;left=0;bottom=0;right=0;fontStyle=1;overflow=hidden;whiteSpace=wrap;html=1;" vertex="1" parent="v8vx41ayqe4JFKYr47lg-121">
          <mxGeometry width="54" height="30" as="geometry">
            <mxRectangle width="54" height="30" as="alternateBounds" />
          </mxGeometry>
        </mxCell>
        <mxCell id="v8vx41ayqe4JFKYr47lg-123" value="NºPóliza" style="shape=partialRectangle;connectable=0;fillColor=none;top=0;left=0;bottom=0;right=0;align=left;spacingLeft=6;fontStyle=5;overflow=hidden;whiteSpace=wrap;html=1;" vertex="1" parent="v8vx41ayqe4JFKYr47lg-121">
          <mxGeometry x="54" width="126" height="30" as="geometry">
            <mxRectangle width="126" height="30" as="alternateBounds" />
          </mxGeometry>
        </mxCell>
        <mxCell id="v8vx41ayqe4JFKYr47lg-105" value="Contratación" style="shape=table;startSize=30;container=1;collapsible=1;childLayout=tableLayout;fixedRows=1;rowLines=0;fontStyle=1;align=center;resizeLast=1;html=1;" vertex="1" parent="1">
          <mxGeometry x="750" y="970" width="180" height="150" as="geometry" />
        </mxCell>
        <mxCell id="v8vx41ayqe4JFKYr47lg-106" value="" style="shape=tableRow;horizontal=0;startSize=0;swimlaneHead=0;swimlaneBody=0;fillColor=none;collapsible=0;dropTarget=0;points=[[0,0.5],[1,0.5]];portConstraint=eastwest;top=0;left=0;right=0;bottom=1;" vertex="1" parent="v8vx41ayqe4JFKYr47lg-105">
          <mxGeometry y="30" width="180" height="30" as="geometry" />
        </mxCell>
        <mxCell id="v8vx41ayqe4JFKYr47lg-107" value="PK, FK" style="shape=partialRectangle;connectable=0;fillColor=none;top=0;left=0;bottom=0;right=0;fontStyle=1;overflow=hidden;whiteSpace=wrap;html=1;" vertex="1" parent="v8vx41ayqe4JFKYr47lg-106">
          <mxGeometry width="50" height="30" as="geometry">
            <mxRectangle width="50" height="30" as="alternateBounds" />
          </mxGeometry>
        </mxCell>
        <mxCell id="v8vx41ayqe4JFKYr47lg-108" value="Num_Poliza" style="shape=partialRectangle;connectable=0;fillColor=none;top=0;left=0;bottom=0;right=0;align=left;spacingLeft=6;fontStyle=5;overflow=hidden;whiteSpace=wrap;html=1;" vertex="1" parent="v8vx41ayqe4JFKYr47lg-106">
          <mxGeometry x="50" width="130" height="30" as="geometry">
            <mxRectangle width="130" height="30" as="alternateBounds" />
          </mxGeometry>
        </mxCell>
        <mxCell id="v8vx41ayqe4JFKYr47lg-115" value="" style="shape=tableRow;horizontal=0;startSize=0;swimlaneHead=0;swimlaneBody=0;fillColor=none;collapsible=0;dropTarget=0;points=[[0,0.5],[1,0.5]];portConstraint=eastwest;top=0;left=0;right=0;bottom=1;" vertex="1" parent="v8vx41ayqe4JFKYr47lg-105">
          <mxGeometry y="60" width="180" height="30" as="geometry" />
        </mxCell>
        <mxCell id="v8vx41ayqe4JFKYr47lg-116" value="PK, FK" style="shape=partialRectangle;connectable=0;fillColor=none;top=0;left=0;bottom=0;right=0;fontStyle=1;overflow=hidden;whiteSpace=wrap;html=1;" vertex="1" parent="v8vx41ayqe4JFKYr47lg-115">
          <mxGeometry width="50" height="30" as="geometry">
            <mxRectangle width="50" height="30" as="alternateBounds" />
          </mxGeometry>
        </mxCell>
        <mxCell id="v8vx41ayqe4JFKYr47lg-117" value="DNI" style="shape=partialRectangle;connectable=0;fillColor=none;top=0;left=0;bottom=0;right=0;align=left;spacingLeft=6;fontStyle=5;overflow=hidden;whiteSpace=wrap;html=1;" vertex="1" parent="v8vx41ayqe4JFKYr47lg-115">
          <mxGeometry x="50" width="130" height="30" as="geometry">
            <mxRectangle width="130" height="30" as="alternateBounds" />
          </mxGeometry>
        </mxCell>
        <mxCell id="v8vx41ayqe4JFKYr47lg-109" value="" style="shape=tableRow;horizontal=0;startSize=0;swimlaneHead=0;swimlaneBody=0;fillColor=none;collapsible=0;dropTarget=0;points=[[0,0.5],[1,0.5]];portConstraint=eastwest;top=0;left=0;right=0;bottom=0;" vertex="1" parent="v8vx41ayqe4JFKYr47lg-105">
          <mxGeometry y="90" width="180" height="30" as="geometry" />
        </mxCell>
        <mxCell id="v8vx41ayqe4JFKYr47lg-110" value="" style="shape=partialRectangle;connectable=0;fillColor=none;top=0;left=0;bottom=0;right=0;editable=1;overflow=hidden;whiteSpace=wrap;html=1;" vertex="1" parent="v8vx41ayqe4JFKYr47lg-109">
          <mxGeometry width="50" height="30" as="geometry">
            <mxRectangle width="50" height="30" as="alternateBounds" />
          </mxGeometry>
        </mxCell>
        <mxCell id="v8vx41ayqe4JFKYr47lg-111" value="Nombre" style="shape=partialRectangle;connectable=0;fillColor=none;top=0;left=0;bottom=0;right=0;align=left;spacingLeft=6;overflow=hidden;whiteSpace=wrap;html=1;" vertex="1" parent="v8vx41ayqe4JFKYr47lg-109">
          <mxGeometry x="50" width="130" height="30" as="geometry">
            <mxRectangle width="130" height="30" as="alternateBounds" />
          </mxGeometry>
        </mxCell>
        <mxCell id="v8vx41ayqe4JFKYr47lg-112" value="" style="shape=tableRow;horizontal=0;startSize=0;swimlaneHead=0;swimlaneBody=0;fillColor=none;collapsible=0;dropTarget=0;points=[[0,0.5],[1,0.5]];portConstraint=eastwest;top=0;left=0;right=0;bottom=0;" vertex="1" parent="v8vx41ayqe4JFKYr47lg-105">
          <mxGeometry y="120" width="180" height="30" as="geometry" />
        </mxCell>
        <mxCell id="v8vx41ayqe4JFKYr47lg-113" value="" style="shape=partialRectangle;connectable=0;fillColor=none;top=0;left=0;bottom=0;right=0;editable=1;overflow=hidden;whiteSpace=wrap;html=1;" vertex="1" parent="v8vx41ayqe4JFKYr47lg-112">
          <mxGeometry width="50" height="30" as="geometry">
            <mxRectangle width="50" height="30" as="alternateBounds" />
          </mxGeometry>
        </mxCell>
        <mxCell id="v8vx41ayqe4JFKYr47lg-114" value="Dirección" style="shape=partialRectangle;connectable=0;fillColor=none;top=0;left=0;bottom=0;right=0;align=left;spacingLeft=6;overflow=hidden;whiteSpace=wrap;html=1;" vertex="1" parent="v8vx41ayqe4JFKYr47lg-112">
          <mxGeometry x="50" width="130" height="30" as="geometry">
            <mxRectangle width="130" height="30" as="alternateBounds" />
          </mxGeometry>
        </mxCell>
        <mxCell id="v8vx41ayqe4JFKYr47lg-118" style="edgeStyle=orthogonalEdgeStyle;rounded=0;orthogonalLoop=1;jettySize=auto;html=1;entryX=1;entryY=0.5;entryDx=0;entryDy=0;" edge="1" parent="1" source="v8vx41ayqe4JFKYr47lg-115" target="v8vx41ayqe4JFKYr47lg-76">
          <mxGeometry relative="1" as="geometry">
            <Array as="points">
              <mxPoint x="970" y="1045" />
              <mxPoint x="970" y="1245" />
            </Array>
          </mxGeometry>
        </mxCell>
        <mxCell id="v8vx41ayqe4JFKYr47lg-119" style="edgeStyle=orthogonalEdgeStyle;rounded=0;orthogonalLoop=1;jettySize=auto;html=1;entryX=1;entryY=0.5;entryDx=0;entryDy=0;" edge="1" parent="1" source="v8vx41ayqe4JFKYr47lg-106" target="v8vx41ayqe4JFKYr47lg-66">
          <mxGeometry relative="1" as="geometry" />
        </mxCell>
        <mxCell id="v8vx41ayqe4JFKYr47lg-124" style="edgeStyle=orthogonalEdgeStyle;rounded=0;orthogonalLoop=1;jettySize=auto;html=1;entryX=0;entryY=0.5;entryDx=0;entryDy=0;" edge="1" parent="1" source="v8vx41ayqe4JFKYr47lg-121" target="v8vx41ayqe4JFKYr47lg-66">
          <mxGeometry relative="1" as="geometry" />
        </mxCell>
        <mxCell id="v8vx41ayqe4JFKYr47lg-125" style="edgeStyle=orthogonalEdgeStyle;rounded=0;orthogonalLoop=1;jettySize=auto;html=1;entryX=1;entryY=0.5;entryDx=0;entryDy=0;" edge="1" parent="1" source="v8vx41ayqe4JFKYr47lg-96" target="v8vx41ayqe4JFKYr47lg-86">
          <mxGeometry relative="1" as="geometry" />
        </mxCell>
        <mxCell id="v8vx41ayqe4JFKYr47lg-126" style="edgeStyle=orthogonalEdgeStyle;rounded=0;orthogonalLoop=1;jettySize=auto;html=1;entryX=0;entryY=0.5;entryDx=0;entryDy=0;" edge="1" parent="1" source="v8vx41ayqe4JFKYr47lg-86" target="v8vx41ayqe4JFKYr47lg-2">
          <mxGeometry relative="1" as="geometry" />
        </mxCell>
      </root>
    </mxGraphModel>
  </diagram>
</mxfile>
